<svg width="16" height="16" viewBox="0 0 16 16" fill="none" xmlns="http://www.w3.org/2000/svg">
<circle cx="3" cy="3" r="2" fill="#579EEE" stroke="#579EEE"/>
<path d="M11.5 10V6L15 8L11.5 10Z" fill="white"/>
<rect x="0.75" y="10.75" width="4.5" height="4.5" fill="#579EEE" stroke="#579EEE" stroke-width="0.5"/>
<path fill-rule="evenodd" clip-rule="evenodd" d="M2.97143 5.02857C4.10675 5.02857 5.02726 4.10887 5.02857 2.97386L5.02857 2.97143C5.02857 1.8353 4.10756 0.914286 2.97143 0.914286C1.8353 0.914286 0.914286 1.8353 0.914286 2.97143C0.914286 4.10756 1.8353 5.02857 2.97143 5.02857ZM2.97143 5.94286C4.457 5.94286 5.68795 4.85267 5.90789 3.42869H10.2857C11.4218 3.42869 12.3429 4.3497 12.3429 5.48583V5.49256L11.8857 5.22863C11.4286 4.9647 10.8571 5.29462 10.8571 5.82248V10.1774C10.8571 10.7052 11.4286 11.0351 11.8857 10.7712L12.3429 10.5073V10.5144C12.3429 11.6505 11.4218 12.5715 10.2857 12.5715H5.94286V10.9714C5.94286 10.4665 5.53352 10.0571 5.02857 10.0571H0.914286C0.40934 10.0571 0 10.4665 0 10.9714V15.0857C0 15.5906 0.40934 16 0.914286 16H5.02857C5.53352 16 5.94286 15.5906 5.94286 15.0857V13.4858H10.2857C11.9268 13.4858 13.2571 12.1555 13.2571 10.5144V9.97941L15.6571 8.59376C16.1143 8.32983 16.1143 7.67 15.6571 7.40607L13.2571 6.02042V5.48583C13.2571 3.84476 11.9268 2.5144 10.2857 2.5144H5.90793C5.68809 1.0903 4.45709 0 2.97143 0C1.33035 0 0 1.33035 0 2.97143C0 4.6125 1.33035 5.94286 2.97143 5.94286ZM5.02857 13.0261C5.02857 13.027 5.02856 13.0278 5.02856 13.0287C5.02856 13.0296 5.02857 13.0304 5.02857 13.0313V15.0857H0.914286L0.914286 10.9714H5.02857V13.0261ZM11.7714 6.21838L14.8571 7.99991L11.7714 9.78145V6.21838Z" fill="#0F498B"/>
<path fill-rule="evenodd" clip-rule="evenodd" d="M15.6571 7.40607C16.1143 7.67 16.1143 8.32983 15.6571 8.59376L11.8857 10.7712C11.4286 11.0351 10.8571 10.7052 10.8571 10.1774L10.8571 5.82248C10.8571 5.29462 11.4286 4.9647 11.8857 5.22863L15.6571 7.40607ZM14.8571 7.99991L11.7714 6.21838L11.7714 9.78145L14.8571 7.99991Z" fill="#0F498B"/>
</svg>
