<svg width="16" height="16" viewBox="0 0 16 16" fill="none" xmlns="http://www.w3.org/2000/svg">
<path fill-rule="evenodd" clip-rule="evenodd" d="M6.60059 3.71637C6.60059 3.38909 6.8709 3.12378 7.20436 3.12378H11.4536C12.2873 3.12378 12.9631 3.78706 12.9631 4.60526V5.85817C12.9631 6.18545 12.6928 6.45076 12.3593 6.45076C12.0259 6.45076 11.7555 6.18545 11.7555 5.85817V4.60526C11.7555 4.44162 11.6204 4.30896 11.4536 4.30896H7.20436C6.8709 4.30896 6.60059 4.04365 6.60059 3.71637ZM12.3593 9.54918C12.6928 9.54918 12.9631 9.81449 12.9631 10.1418V11.3947C12.9631 12.2129 12.2873 12.8762 11.4536 12.8762H7.20436C6.8709 12.8762 6.60059 12.6108 6.60059 12.2836C6.60059 11.9563 6.8709 11.691 7.20436 11.691H11.4536C11.6204 11.691 11.7555 11.5583 11.7555 11.3947V10.1418C11.7555 9.81449 12.0259 9.54918 12.3593 9.54918Z" fill="black"/>
<path d="M14.6147 7.63873C14.827 7.74724 14.827 8.01852 14.6147 8.12703L11.3674 9.78677C11.1551 9.89528 10.8898 9.75964 10.8898 9.54262V6.22314C10.8898 6.00611 11.1551 5.87047 11.3674 5.97899L14.6147 7.63873Z" fill="#7DBAFF"/>
<path fill-rule="evenodd" clip-rule="evenodd" d="M11.4312 5.93615C11.224 5.82524 10.9649 5.96388 10.9649 6.1857V9.57848C10.9649 9.80029 11.224 9.93893 11.4312 9.82802L14.6011 8.13163C14.8083 8.02072 14.8083 7.74345 14.6011 7.63254L11.4312 5.93615ZM15.2228 9.12981L12.0529 10.8262C11.0167 11.3807 9.72142 10.6876 9.72142 9.57848V6.1857C9.72142 5.0766 11.0167 4.38343 12.0529 4.93797L15.2228 6.63436C16.2591 7.18891 16.2591 8.57527 15.2228 9.12981Z" fill="black"/>
<path d="M6.67807 3.7164C6.67807 5.11435 5.45345 6.24761 3.9428 6.24761C2.43214 6.24761 1.20752 5.11435 1.20752 3.7164C1.20752 2.31845 2.43214 1.18518 3.9428 1.18518C5.45345 1.18518 6.67807 2.31845 6.67807 3.7164Z" fill="white"/>
<path fill-rule="evenodd" clip-rule="evenodd" d="M7.88565 3.7164C7.88565 5.83365 6.05246 7.4328 3.94282 7.4328C1.83319 7.4328 0 5.83365 0 3.7164C0 1.59915 1.83319 0 3.94282 0C6.05246 0 7.88565 1.59915 7.88565 3.7164ZM3.94282 6.24762C5.45348 6.24762 6.6781 5.11435 6.6781 3.7164C6.6781 2.31845 5.45348 1.18519 3.94282 1.18519C2.43217 1.18519 1.20755 2.31845 1.20755 3.7164C1.20755 5.11435 2.43217 6.24762 3.94282 6.24762Z" fill="black"/>
<path d="M1.20752 10.9376C1.20752 10.2831 1.74816 9.75244 2.41507 9.75244H5.47053C6.13744 9.75244 6.67807 10.2831 6.67807 10.9376V13.6297C6.67807 14.2842 6.13744 14.8149 5.47053 14.8149H2.41507C1.74816 14.8149 1.20752 14.2842 1.20752 13.6297V10.9376Z" fill="white"/>
<path fill-rule="evenodd" clip-rule="evenodd" d="M2.41509 8.56726H5.47056C6.80437 8.56726 7.88565 9.62851 7.88565 10.9376V13.6297C7.88565 14.9388 6.80437 16.0001 5.47056 16.0001H2.41509C1.08127 16.0001 0 14.9388 0 13.6297V10.9376C0 9.62851 1.08127 8.56726 2.41509 8.56726ZM2.41509 9.75245C1.74818 9.75245 1.20755 10.2831 1.20755 10.9376V13.6297C1.20755 14.2843 1.74818 14.8149 2.41509 14.8149H5.47056C6.13747 14.8149 6.6781 14.2843 6.6781 13.6297V10.9376C6.6781 10.2831 6.13747 9.75245 5.47056 9.75245H2.41509Z" fill="black"/>
</svg>
