<svg width="16" height="16" viewBox="0 0 16 16" fill="none" xmlns="http://www.w3.org/2000/svg">
<rect width="16" height="16" rx="2" fill="white"/>
<path fill-rule="evenodd" clip-rule="evenodd" d="M7.00003 3.54688C7.00003 3.24484 7.25494 3 7.5694 3H11.5766C12.3627 3 13 3.61211 13 4.36719V6.45312C13 6.75516 12.7451 7 12.4307 7C12.1162 7 11.8613 6.75516 11.8613 6.45312V4.36719C11.8613 4.21617 11.7338 4.09375 11.5766 4.09375H7.5694C7.25494 4.09375 7.00003 3.84891 7.00003 3.54688ZM12.4306 9.13696C12.7451 9.13696 13 9.38181 13 9.68384V11.1328C13 11.8879 12.3627 12.5 11.5766 12.5H7.56937C7.25492 12.5 7 12.2552 7 11.9531C7 11.6511 7.25492 11.4063 7.56937 11.4063H11.5766C11.7338 11.4063 11.8613 11.2838 11.8613 11.1328V9.68384C11.8613 9.38181 12.1162 9.13696 12.4306 9.13696Z" fill="black"/>
<path d="M13.8771 7.18571C14.0411 7.32539 14.664 7.86031 14.5 8L11.369 9.95084C11.205 10.0905 11.0001 9.91592 11.0001 9.63654V5.36346C11.0001 5.08408 11.205 4.90948 11.369 5.04916L13.8771 7.18571Z" fill="#7DBAFF"/>
<path fill-rule="evenodd" clip-rule="evenodd" d="M11.3616 5.95034C11.1966 5.86201 10.9903 5.97242 10.9903 6.14906V9.15221C10.9903 9.32885 11.1966 9.43926 11.3616 9.35093L13.886 8C14.051 7.91168 14.051 7.3896 13.886 7.30127L11.3616 5.95034ZM14.3811 8.79491L11.8567 10.1458C11.0315 10.5875 10 10.0354 10 9.15221V6.14906C10 5.26583 11.0315 4.71381 11.8567 5.15543L14.3811 6.50636C15.2063 6.94798 15.2063 8.35329 14.3811 8.79491Z" fill="black"/>
<path d="M8 4C8 5.10457 6.88071 6 5.5 6C4.11929 6 3 5.10457 3 4C3 2.89543 4.11929 2 5.5 2C6.88071 2 8 2.89543 8 4Z" fill="white"/>
<path fill-rule="evenodd" clip-rule="evenodd" d="M8 4C8 5.70911 6.60517 7 5 7C3.39483 7 2 5.70911 2 4C2 2.29089 3.39483 1 5 1C6.60517 1 8 2.29089 8 4ZM5 6.04328C6.14942 6.04328 7.08121 5.12847 7.08121 4C7.08121 2.87153 6.14942 1.95672 5 1.95672C3.85058 1.95672 2.91879 2.87153 2.91879 4C2.91879 5.12847 3.85058 6.04328 5 6.04328Z" fill="black"/>
<path d="M3 9.93645C3 9.41927 3.49413 9 4.10368 9H6.89632C7.50587 9 8 9.41927 8 9.93645V12.0635C8 12.5807 7.50587 13 6.89632 13H4.10368C3.49413 13 3 12.5807 3 12.0635V9.93645Z" fill="white"/>
<path fill-rule="evenodd" clip-rule="evenodd" d="M3.83759 9H6.16241C7.17728 9 8 9.85668 8 10.9134V13.0866C8 14.1433 7.17728 15 6.16241 15H3.83759C2.82272 15 2 14.1433 2 13.0866V10.9134C2 9.85668 2.82272 9 3.83759 9ZM3.83759 9.95672C3.33015 9.95672 2.91879 10.3851 2.91879 10.9134V13.0866C2.91879 13.6149 3.33015 14.0433 3.83759 14.0433H6.16241C6.66985 14.0433 7.08121 13.6149 7.08121 13.0866V10.9134C7.08121 10.3851 6.66985 9.95672 6.16241 9.95672H3.83759Z" fill="black"/>
</svg>
