<svg width="15" height="15" viewBox="0 0 15 15" fill="none" xmlns="http://www.w3.org/2000/svg">
<path fill-rule="evenodd" clip-rule="evenodd" d="M0 1.28289C0 0.57554 0.567475 0 1.26923 0H3.95951V4.22973L4.27664 4.55181H10.1768L10.4939 4.22973V0H12.2564L15 2.78648V13.7171C15 14.4245 14.4325 15 13.7308 15H1.26923C0.567492 15 0 14.4245 0 13.7171V1.28289ZM1.26923 0.789474C1.01147 0.789474 0.789474 1.00353 0.789474 1.28289V13.7171C0.789474 13.9965 1.01146 14.2105 1.26923 14.2105H13.7308C13.9885 14.2105 14.2105 13.9965 14.2105 13.7171V3.10991L11.9258 0.789474H11.2834V4.55316L10.5074 5.34128H3.94604L3.17004 4.55316V0.789474H1.26923ZM7.87045 0H9.97166V4.00905H7.87045V0ZM8.65992 0.789474V3.21957H9.18219V0.789474H8.65992ZM3.49071 8.78417C3.44856 8.83799 3.41296 8.9465 3.41296 9.1653V13.1003H11.587V9.27632C11.587 8.93015 11.2584 8.67188 10.998 8.67188H3.89271C3.59647 8.67188 3.51638 8.75138 3.49071 8.78417ZM2.86911 8.29745C3.09698 8.00643 3.45414 7.8824 3.89271 7.8824H10.998C11.6364 7.8824 12.3765 8.43827 12.3765 9.27632V13.8898H2.62348V9.1653C2.62348 8.90301 2.65771 8.56744 2.86911 8.29745Z" fill="#279100"/>
</svg>
