<svg width="15" height="15" viewBox="0 0 15 15" fill="none" xmlns="http://www.w3.org/2000/svg">
<path d="M4.21538 14.0513L0.30554 1.01847C0.183932 0.613106 0.589512 0.249409 0.979272 0.414307L13.9214 5.88981C14.3268 6.06136 14.3287 6.63532 13.9244 6.8095L10.6769 8.20841C10.3524 8.3482 10.2713 8.77132 10.5212 9.02117L13.1598 11.6598C13.3498 11.8498 13.3556 12.1559 13.1731 12.353L11.363 14.308C11.1665 14.5202 10.8316 14.5219 10.6329 14.3119L7.90747 11.4308C7.69452 11.2056 7.33017 11.2264 7.14424 11.4744L5.0943 14.2076C4.84814 14.5358 4.33327 14.4442 4.21538 14.0513Z" fill="#161616"/>
</svg>
