<svg width="15" height="15" viewBox="0 0 15 15" fill="none" xmlns="http://www.w3.org/2000/svg">
<path fill-rule="evenodd" clip-rule="evenodd" d="M15 14.2078C15 14.6453 14.667 15 14.2562 15L9.72746 15C8.22123 15 7.00019 13.6995 7.00019 12.0953V8.90462C7.00019 7.30045 8.22123 6.00001 9.72746 6.00001L9.50019 6.00006V7.58439L9.72746 7.58434C9.04281 7.58434 8.48779 8.17545 8.48779 8.90462V12.0953C8.48779 12.8245 9.04281 13.4156 9.72746 13.4156L14.2562 13.4157C14.667 13.4157 15 13.7703 15 14.2078Z" fill="#161616"/>
<path fill-rule="evenodd" clip-rule="evenodd" d="M0 0.792168C0 0.354666 0.333011 9.44337e-07 0.743802 9.44337e-07L5.27254 4.98531e-05C6.77877 4.98531e-05 7.99981 1.30049 7.99981 2.90466V6.09538C7.99981 7.69955 6.77877 8.99999 5.27254 8.99999L5.49981 8.99994V7.41561L5.27254 7.41566C5.95719 7.41566 6.51221 6.82455 6.51221 6.09538V2.90466C6.51221 2.17549 5.95719 1.58438 5.27254 1.58438L0.743802 1.58433C0.333011 1.58433 0 1.22967 0 0.792168Z" fill="#161616"/>
<rect x="1.5" y="4.5" width="12" height="6" rx="3" fill="#D38200" stroke="#161616"/>
</svg>
