<svg width="15" height="15" viewBox="0 0 15 15" fill="none" xmlns="http://www.w3.org/2000/svg">
<path fill-rule="evenodd" clip-rule="evenodd" d="M0 14C0 13.4477 0.395043 13 0.882353 13H14.1176C14.605 13 15 13.4477 15 14C15 14.5523 14.605 15 14.1176 15H0.882353C0.395043 15 0 14.5523 0 14Z" fill="#161616"/>
<path fill-rule="evenodd" clip-rule="evenodd" d="M2 10.5C2.27614 10.5 2.5 10.7239 2.5 11V13C2.5 13.2761 2.27614 13.5 2 13.5C1.72386 13.5 1.5 13.2761 1.5 13V11C1.5 10.7239 1.72386 10.5 2 10.5Z" fill="#161616"/>
<path fill-rule="evenodd" clip-rule="evenodd" d="M5 10.5C5.27614 10.5 5.5 10.7239 5.5 11V13C5.5 13.2761 5.27614 13.5 5 13.5C4.72386 13.5 4.5 13.2761 4.5 13V11C4.5 10.7239 4.72386 10.5 5 10.5Z" fill="#161616"/>
<path d="M2 6L5 9L7.5 6V0.5H2V6Z" fill="#006FED"/>
<path fill-rule="evenodd" clip-rule="evenodd" d="M1.5 0.5C1.5 0.223858 1.72386 0 2 0H7.5C7.77614 0 8 0.223858 8 0.5V6C8 6.11697 7.95899 6.23023 7.88411 6.32009L5.38411 9.32009C5.29418 9.42801 5.16299 9.49312 5.02266 9.49949C4.88232 9.50585 4.74578 9.45289 4.64645 9.35355L1.64645 6.35355C1.55268 6.25979 1.5 6.13261 1.5 6V0.5ZM2.5 1V5.79289L4.9664 8.25929L7 5.81898V1H2.5Z" fill="#161616"/>
<path fill-rule="evenodd" clip-rule="evenodd" d="M8 10.5C8.27614 10.5 8.5 10.7239 8.5 11V13C8.5 13.2761 8.27614 13.5 8 13.5C7.72386 13.5 7.5 13.2761 7.5 13V11C7.5 10.7239 7.72386 10.5 8 10.5Z" fill="#161616"/>
<path fill-rule="evenodd" clip-rule="evenodd" d="M11 10.5C11.2761 10.5 11.5 10.7239 11.5 11V13C11.5 13.2761 11.2761 13.5 11 13.5C10.7239 13.5 10.5 13.2761 10.5 13V11C10.5 10.7239 10.7239 10.5 11 10.5Z" fill="#161616"/>
<path fill-rule="evenodd" clip-rule="evenodd" d="M14 10.5C14.2761 10.5 14.5 10.7239 14.5 11V13C14.5 13.2761 14.2761 13.5 14 13.5C13.7239 13.5 13.5 13.2761 13.5 13V11C13.5 10.7239 13.7239 10.5 14 10.5Z" fill="#161616"/>
</svg>
