<svg width="15" height="15" viewBox="0 0 15 15" fill="none" xmlns="http://www.w3.org/2000/svg">
<path fill-rule="evenodd" clip-rule="evenodd" d="M12 1H3C1.89543 1 1 1.89543 1 3V12C1 13.1046 1.89543 14 3 14H12C13.1046 14 14 13.1046 14 12V3C14 1.89543 13.1046 1 12 1ZM3 0C1.34315 0 0 1.34315 0 3V12C0 13.6569 1.34315 15 3 15H12C13.6569 15 15 13.6569 15 12V3C15 1.34315 13.6569 0 12 0H3Z" fill="#161616"/>
<path fill-rule="evenodd" clip-rule="evenodd" d="M11.7071 4.29289C12.0976 4.68342 12.0976 5.31658 11.7071 5.70711L7.20711 10.2071C6.81658 10.5976 6.18342 10.5976 5.79289 10.2071L3.29289 7.70711C2.90237 7.31658 2.90237 6.68342 3.29289 6.29289C3.68342 5.90237 4.31658 5.90237 4.70711 6.29289L6.5 8.08579L10.2929 4.29289C10.6834 3.90237 11.3166 3.90237 11.7071 4.29289Z" fill="#161616"/>
</svg>
