<svg width="15" height="15" viewBox="0 0 15 15" fill="none" xmlns="http://www.w3.org/2000/svg">
<path fill-rule="evenodd" clip-rule="evenodd" d="M0 1.07143C0 0.479695 0.479695 0 1.07143 0H13.9286C14.5203 0 15 0.479695 15 1.07143V1.92857C15 2.52031 14.5203 3 13.9286 3C13.4102 3 12.9778 2.63191 12.8786 2.14286H8.57143V12.868C9.09066 12.9423 10.5 13.3888 10.5 13.9286C10.5 14.5203 9.0101 15 8.41837 15H6.58163C5.9899 15 4.5 14.5203 4.5 13.9286C4.5 13.3888 5.90934 12.9423 6.42857 12.868V2.14286H2.12142C2.02215 2.63191 1.58978 3 1.07143 3C0.479695 3 0 2.52031 0 1.92857V1.07143Z" fill="#161616"/>
</svg>
