<svg width="15" height="15" viewBox="0 0 15 15" fill="none" xmlns="http://www.w3.org/2000/svg">
<rect width="15" height="15" rx="3" fill="#2FB000"/>
<path d="M5 10.6629V4.89479C5 4.50363 5.42891 4.26395 5.76205 4.46896L10.7611 7.54528C11.0892 7.74719 11.0753 8.2287 10.7361 8.41135L5.73705 11.1031C5.40393 11.2825 5 11.0412 5 10.6629Z" fill="white"/>
<path fill-rule="evenodd" clip-rule="evenodd" d="M4.5 4.89478C4.5 4.11246 5.35783 3.63311 6.0241 4.04312L11.0231 7.11945C11.6793 7.52327 11.6515 8.48628 10.9731 8.85158L5.9741 11.5434C5.30787 11.9021 4.5 11.4196 4.5 10.6629V4.89478ZM10.499 7.97111L5.5 4.89478V10.6629L10.499 7.97111Z" fill="white"/>
</svg>
