<svg width="15" height="15" viewBox="0 0 15 15" fill="none" xmlns="http://www.w3.org/2000/svg">
<rect width="15" height="15" rx="3" fill="#A50303"/>
<path fill-rule="evenodd" clip-rule="evenodd" d="M5 3C5.82843 3 6.5 3.67157 6.5 4.5V10.5C6.5 11.3284 5.82843 12 5 12C4.17157 12 3.5 11.3284 3.5 10.5V4.5C3.5 3.67157 4.17157 3 5 3Z" fill="white"/>
<path fill-rule="evenodd" clip-rule="evenodd" d="M11 10.5C11 11.3284 10.4777 12 9.83333 12L5.16667 12C4.52233 12 4 11.3284 4 10.5C4 9.67157 4.52233 9 5.16667 9L9.83333 9C10.4777 9 11 9.67157 11 10.5Z" fill="white"/>
<path fill-rule="evenodd" clip-rule="evenodd" d="M11 4.5C11 5.32843 10.4777 6 9.83333 6L5.16667 6C4.52233 6 4 5.32843 4 4.5C4 3.67157 4.52233 3 5.16667 3L9.83333 3C10.4777 3 11 3.67157 11 4.5Z" fill="white"/>
<path fill-rule="evenodd" clip-rule="evenodd" d="M7.5 4C8.32843 4 9 4.52233 9 5.16667V9.83333C9 10.4777 8.32843 11 7.5 11C6.67157 11 6 10.4777 6 9.83333L6 5.16667C6 4.52233 6.67157 4 7.5 4Z" fill="white"/>
<path fill-rule="evenodd" clip-rule="evenodd" d="M10 3C10.8284 3 11.5 3.67157 11.5 4.5V10.5C11.5 11.3284 10.8284 12 10 12C9.17157 12 8.5 11.3284 8.5 10.5V4.5C8.5 3.67157 9.17157 3 10 3Z" fill="white"/>
</svg>
