<svg width="15" height="15" viewBox="0 0 15 15" fill="none" xmlns="http://www.w3.org/2000/svg">
<path fill-rule="evenodd" clip-rule="evenodd" d="M13.8221 1.02763C14.0746 1.08093 14.3131 1.21037 14.5305 1.41543C14.7414 1.61439 14.886 1.83664 14.9548 2.07845C15.0241 2.32171 15.0082 2.55503 14.9446 2.7605C14.8229 3.1541 14.5284 3.44797 14.2946 3.61338L13.9794 3.83632L11.9543 1.92619L12.3108 1.58997C12.4564 1.45262 12.7512 1.18965 13.136 1.06724C13.3367 1.0034 13.5709 0.974622 13.8221 1.02763ZM13.3636 1.97329L14.0077 2.58077C14.0251 2.54986 14.0389 2.51888 14.0482 2.48857C14.0657 2.43218 14.0671 2.3818 14.0525 2.33046C14.0375 2.27767 13.9969 2.19442 13.884 2.0879C13.7742 1.98434 13.6871 1.94857 13.6267 1.93581C13.5649 1.92277 13.4988 1.92711 13.4227 1.95133C13.4029 1.95761 13.3832 1.96498 13.3636 1.97329ZM11.8011 1.98339L13.9615 4.02114L7.45399 10.1592H5.40964V8.01204L11.8011 1.98339ZM10.577 2.16024L7.26423 5.17858L0.979606 5.17858L0.979606 13.0243L0.96564 13.0551C1.00763 13.0638 1.06999 13.0714 1.15866 13.0714H11.1737C11.234 13.0495 11.3082 13.0141 11.3667 12.97C11.4042 12.9417 11.4194 12.9227 11.4249 12.9139V6.81442H12.3624V12.9247C12.3624 13.3069 12.1242 13.5657 11.9348 13.7086C11.7413 13.8546 11.521 13.9427 11.3689 13.9837L11.3085 14H1.15866C0.720411 14 0.332612 13.8791 0.125833 13.5541C-0.0355172 13.3004 -0.0156523 13.0315 0.0421113 12.8436V3.23555C0.0421113 2.84104 0.255071 2.56821 0.478958 2.40771C0.689804 2.25657 0.929312 2.18686 1.09547 2.16448L1.12692 2.16024L10.577 2.16024ZM0.979606 4.25001L6.89862 4.25001L8.17308 3.08881H1.19795C1.17909 3.09281 1.15505 3.09926 1.12872 3.10889C1.08953 3.12322 1.05496 3.14105 1.02861 3.15994C1.00263 3.17856 0.991331 3.19331 0.986847 3.20094C0.984116 3.20559 0.979606 3.21389 0.979606 3.23555L0.979606 4.25001ZM6.34714 8.41003V9.23067H7.07902L12.6021 4.02114L11.8011 3.26565L6.34714 8.41003Z" fill="#161616"/>
</svg>
