<svg width="15" height="15" viewBox="0 0 15 15" fill="none" xmlns="http://www.w3.org/2000/svg">
<path fill-rule="evenodd" clip-rule="evenodd" d="M0.223852 3.37714C0.455201 3.04532 0.832123 2.90768 1.25842 2.90768H8V3.9173H1.25842C1.16633 3.9173 1.12554 3.9308 1.11469 3.93522C1.10976 3.94351 1.09789 3.96752 1.08752 4.01863C1.07552 4.07781 1.06879 4.15659 1.06879 4.26057V13.6471C1.06879 13.8549 1.12909 13.9315 1.14986 13.9524C1.17116 13.9738 1.20392 13.9904 1.25842 13.9904H10.8455C11.0269 13.9904 11.0737 13.9407 11.0863 13.9267C11.1119 13.898 11.1558 13.8193 11.1558 13.6471L11.1558 6.99999H12.2246L12.2246 13.6471C12.2246 13.9596 12.1478 14.3048 11.9019 14.5791C11.643 14.8679 11.2674 15 10.8455 15H1.25842C0.95091 15 0.621657 14.8954 0.371444 14.6442C0.120704 14.3925 0 14.0451 0 13.6471V4.26057C0 4.00314 0.0262749 3.66052 0.223852 3.37714Z" fill="#D38200"/>
<path d="M15 4.86635H13.9313V1.77803L6.1666 9.5738L5.38818 8.88197L13.2291 1.00962H10.1215V0H15V4.86635Z" fill="#161616"/>
</svg>
